<svg width="297" height="369" viewBox="0 0 297 369" fill="none" xmlns="http://www.w3.org/2000/svg">
<g clip-path="url(#clip0)">
<path d="M107.951 92.1495C108.066 92.2961 108.451 92.7879 108.547 92.9193C108.924 93.437 110.427 95.867 111.084 96.9454C111.759 98.1107 113.051 100.483 113.668 101.691C114.213 102.813 115.015 104.464 115.27 104.993" stroke="#F8F8F8" stroke-width="3.9711" stroke-linecap="round" stroke-linejoin="round"/>
<path d="M51.2487 210.003C50.149 212.114 47.9542 216.419 46.8576 218.614C46.2802 219.868 45.6158 221.724 45.5593 222.419C45.5548 222.475 45.5532 222.602 45.5563 222.797" stroke="#F8F8F8" stroke-width="4.09635" stroke-linecap="round" stroke-linejoin="round"/>
<path d="M45.5586 223.527C45.8656 223.596 45.9832 223.647 46.3803 223.897C46.8721 224.201 48.0085 224.441 48.5415 224.584C50.886 225.273 54.4187 226.263 55.607 226.567C56.0866 226.692 56.6212 226.991 56.7311 227.036C56.7984 227.063 56.9541 227.114 57.1985 227.187" stroke="#F8F8F8" stroke-width="4.09635" stroke-linecap="round" stroke-linejoin="round"/>
<path d="M60.6797 228.568C60.7393 228.178 61.0646 227.805 61.5335 227.124C62.1032 226.333 63.0608 224.548 63.4045 224.039C63.9482 223.263 65.0342 221.661 65.5748 220.835C65.8299 220.916 66.0071 221.019 66.1461 221.209C66.5585 221.777 67.4061 224.163 67.7681 225.22C67.9728 225.782 68.4081 226.855 68.5837 227.217C68.7853 227.634 69.2664 228.429 69.4696 228.765C69.5093 228.833 69.549 228.901 69.5902 228.969" stroke="#F8F8F8" stroke-width="4.09635" stroke-linecap="round" stroke-linejoin="round"/>
<path d="M69.8418 229.255C70.2282 228.899 70.7429 227.975 70.8743 227.741C72.31 225.163 74.4269 222.107 75.05 221.545C75.4731 221.168 76.4079 220.815 76.7973 220.79C76.9424 220.786 77.0768 220.926 77.1777 221.123C77.4678 221.751 78.2667 224.218 78.6851 225.522C79.2655 227.282 79.8337 228.814 80.4049 229.802C80.5531 230.064 80.718 230.374 80.8143 230.565" stroke="#F8F8F8" stroke-width="4.09635" stroke-linecap="round" stroke-linejoin="round"/>
<path d="M80.6113 230.63C80.9687 230.575 81.1688 230.454 81.3857 230.112C82.6656 228.209 85.592 223.43 85.9418 223.039C86.1021 222.86 86.3679 222.709 86.7574 222.53C87.0033 222.811 87.2492 223.304 87.3133 223.749C87.3775 224.222 87.5409 227.285 87.6051 228.572C87.6906 229.898 87.9563 232.009 87.8525 232.615C87.8051 232.887 87.66 233.382 87.5516 233.684" stroke="#F8F8F8" stroke-width="4.09635" stroke-linecap="round" stroke-linejoin="round"/>
<path d="M59.9934 229.942C59.917 229.942 59.8406 229.942 59.7643 229.942C59.6879 229.942 59.6115 229.942 59.5352 229.942C60.7631 231.1 61.4535 231.584 62.3882 232.661C62.7533 233.076 63.6193 233.904 63.714 233.976C64.021 234.199 64.4425 234.332 64.7724 234.306C64.997 234.281 65.6278 233.855 66.3212 233.31C66.8344 232.896 67.9921 231.939 68.157 231.786C68.6809 231.299 68.9772 230.874 69.0566 230.764" stroke="#F8F8F8" stroke-width="4.09635" stroke-linecap="round" stroke-linejoin="round"/>
<path d="M70.2988 231.088C70.3462 231.137 71.1465 231.894 71.3787 232.103C71.8078 232.488 72.709 233.205 73.158 233.557C73.604 233.912 74.3784 234.706 74.6869 234.94C75.0076 235.172 75.3605 235.245 75.5911 235.091C76.0737 234.749 77.9768 232.939 78.9436 231.836C79.104 231.656 79.4476 231.27 79.5255 231.192C79.7088 231.004 79.9394 230.798 80.0677 230.698" stroke="#F8F8F8" stroke-width="4.09635" stroke-linecap="round" stroke-linejoin="round"/>
<path d="M81.2969 231.317H81.4114C81.4939 231.47 81.6451 231.824 81.6558 231.841C81.7184 231.925 81.9429 232.125 82.0865 232.391C82.8364 233.819 83.8491 235.351 84.179 235.684C84.3882 235.885 85.1107 235.913 85.2665 235.899C85.6208 235.861 86.1615 235.471 86.4318 235.212C86.6731 234.979 86.9618 234.715 87.2749 234.44C87.4017 234.33 87.53 234.22 87.6568 234.109" stroke="#F8F8F8" stroke-width="4.09635" stroke-linecap="round" stroke-linejoin="round"/>
<path d="M87.7109 233.15C87.9507 233.165 88.9084 232.818 89.0443 232.785C89.4429 232.688 94.4313 232.691 96.5604 232.698C102.121 232.714 112.941 232.685 118.2 232.641C123.06 232.514 132.552 232.194 137.185 232C142.216 231.746 152.39 231.198 157.534 230.904C162.462 230.634 171.765 230.148 176.14 229.933C180.752 229.638 187.357 229.095 187.853 229.017C188.52 228.907 189.017 228.639 189.203 228.592C189.382 228.548 189.706 228.722 190.043 228.962" stroke="#F8F8F8" stroke-width="4.09635" stroke-linecap="round" stroke-linejoin="round"/>
<path d="M193.559 228.568C193.556 228.287 193.556 228.108 193.559 228.033C193.571 227.717 193.832 226.99 193.903 226.7C193.935 226.561 194.136 225.211 194.219 224.815C194.287 224.488 194.581 223.41 194.672 222.852C194.75 222.364 194.908 220.847 194.917 220.683C194.938 220.372 195.085 220.155 195.308 220.121C195.45 220.106 196.368 220.511 196.647 220.754C196.999 221.065 198.961 223.402 199.769 224.38C200.197 224.888 200.925 225.75 201.226 226.099C201.287 226.171 201.348 226.241 201.409 226.312" stroke="#F8F8F8" stroke-width="4.09635" stroke-linecap="round" stroke-linejoin="round"/>
<path d="M194.015 227.88L193.557 228.339C193.7 228.403 194.407 228.91 194.786 229.047C195.591 229.337 197.468 230.59 198.278 230.923C198.531 231.022 198.988 231.062 199.171 230.988C199.596 230.802 200.697 228.792 200.757 228.658C200.867 228.406 201.009 228.002 201.059 227.825" stroke="#F8F8F8" stroke-width="4.09635" stroke-linecap="round" stroke-linejoin="round"/>
<path d="M209.534 220.968C208.915 223.74 207.704 228.125 207 230.164C206.548 231.41 205.819 233.208 205.382 234.202C204.994 235.06 203.724 237.432 203.166 238.297C202.532 239.273 201.159 241.011 200.583 241.604C200.254 241.94 199.496 242.596 199.247 242.708C199.012 242.812 198.54 242.951 198.234 243.019" stroke="#F8F8F8" stroke-width="4.09635" stroke-linecap="round" stroke-linejoin="round"/>
<path d="M198.826 243.459C199.216 243.345 200.425 242.989 200.867 242.844C201.603 242.599 204.477 241.498 205.145 241.205C206.384 240.646 208.009 239.786 209.452 238.925C212.523 237.012 213.985 235.574 214.405 235.099" stroke="#F8F8F8" stroke-width="4.09635" stroke-linecap="round" stroke-linejoin="round"/>
<path d="M213.263 237.273C213.276 237.596 212.729 240.03 212.625 241.122C212.584 241.452 211.317 249.808 211.123 250.789C210.569 253.385 210.276 254.07 210.123 254.354" stroke="#F8F8F8" stroke-width="4.09635" stroke-linecap="round" stroke-linejoin="round"/>
<path d="M242.92 225.967C242.022 227.68 239.811 231.577 238.535 233.738C237.88 234.796 236.547 236.815 235.907 237.712C234.779 239.232 231.186 243.539 229.913 244.915C228.502 246.406 224.488 250.051 222.761 251.434C221.534 252.371 219.983 253.43 218.99 253.977C218.086 254.475 215.946 255.47 215.338 255.754" stroke="#F8F8F8" stroke-width="4.09635" stroke-linecap="round" stroke-linejoin="round"/>
<path d="M210.053 256.06C210.224 256.058 210.728 256.058 211.061 256.06C211.583 256.066 212.77 256.08 213.41 256.06C214.105 256.035 216.318 255.849 216.81 255.713" stroke="#F8F8F8" stroke-width="4.09635" stroke-linecap="round" stroke-linejoin="round"/>
<path d="M123.787 219.753C124.053 219.775 124.219 219.726 124.389 219.541C124.65 219.252 125.09 218.554 125.307 218.247C125.562 217.85 126.3 216.389 126.44 216.129C126.914 215.255 128.826 212.83 129.046 212.715C129.218 212.633 129.382 212.61 129.533 212.648C130.026 212.795 132.864 217.113 133.498 217.728C133.739 217.96 134.41 218.464 134.57 218.586" stroke="#F8F8F8" stroke-width="4.09635" stroke-linecap="round" stroke-linejoin="round"/>
<path d="M154.773 230.769C154.678 231.124 154.457 232.006 154.429 232.662C154.406 233.267 154.64 235.702 154.723 236.933C154.785 238.239 154.906 240.785 154.97 241.793C155.037 242.656 155.279 244.547 155.352 246.112C155.544 251.098 156.073 263.474 156.351 266.75C156.574 268.848 157.612 276.01 157.698 276.581" stroke="#F8F8F8" stroke-width="4.09635" stroke-linecap="round" stroke-linejoin="round"/>
<path d="M168.197 233.179C168.156 233.434 168.214 233.561 168.541 233.868C168.781 234.095 168.906 234.301 169.008 234.619C169.152 235.071 172.078 240.603 172.733 242.014C173.639 244.089 175.733 249.576 176.677 252.138C177.096 253.343 177.832 255.51 178.146 256.471C178.38 257.231 178.522 257.968 178.478 258.673C178.427 259.353 178.285 260.066 177.951 260.566C177.864 260.694 176.857 262.033 176.456 262.427C175.698 263.161 172.914 264.835 172.761 264.992C172.651 265.108 172.448 265.458 172.426 265.574C172.382 265.884 172.724 266.307 173.334 266.837C173.884 267.301 176.55 269.355 176.946 269.688C177.433 270.104 178.169 271.005 178.252 271.391C178.299 271.631 178.267 272.034 178.209 272.271" stroke="#F8F8F8" stroke-width="4.09635" stroke-linecap="round" stroke-linejoin="round"/>
<path d="M190.92 228.704C190.923 228.78 190.923 228.838 190.92 228.875C190.879 229.337 191.007 229.927 191.363 230.489C191.474 230.663 192.195 231.601 192.458 232.071C193.625 234.179 196.004 238.54 197.217 240.791C198.63 243.54 200.305 247.314 201.139 249.324C202.138 251.803 204.364 257.453 204.854 258.853C205.457 260.672 205.779 261.856 206.122 263.266C206.331 264.19 206.806 266.675 206.933 267.501C207.194 269.378 207.45 274.952 207.461 276.658C207.444 278.182 207.377 279.761 207.263 280.971C207.156 282.092 206.739 284.097 206.334 285.066C205.935 286.011 204.553 288.461 203.927 289.179C203.831 289.287 198.528 294.254 197.385 294.983C196.541 295.517 194.648 296.434 193.481 296.851C192.029 297.349 189.832 297.986 189.124 298.155C188.071 298.404 185.669 298.749 184.624 298.755C183.459 298.757 181.261 298.482 180.287 298.231C179.79 298.103 178.643 297.726 178.057 297.53C177.446 297.336 176.378 297.147 175.819 297.168C175.144 297.211 174.59 297.214 174.301 297.442C174.055 297.631 173.713 297.715 173.507 297.604C173.299 297.485 172.905 296.643 172.714 296.038C172.347 294.825 171.973 293.011 171.701 291.276C171.281 288.29 170.189 278.944 169.997 276.945C169.888 275.541 169.991 274.109 170.053 273.916C170.218 273.446 170.707 273.174 171.399 272.943C172.066 272.74 173.763 272.485 175.33 272.344C177.832 272.135 182.836 271.729 185.337 271.532C186.84 271.422 188.682 271.387 189.191 271.225C189.263 271.202 189.365 271.161 189.496 271.103" stroke="#F8F8F8" stroke-width="4.09635" stroke-linecap="round" stroke-linejoin="round"/>
<path d="M181.625 272.079L181.281 272.424C181.387 271.943 181.544 271.376 181.918 270.868C182.352 270.29 184.328 268.337 185.388 267.492C186.529 266.603 187.722 265.745 188.079 265.49" stroke="#F8F8F8" stroke-width="4.09635" stroke-linecap="round" stroke-linejoin="round"/>
<path d="M167.166 277.243C167.108 277.243 167.05 277.243 166.993 277.243C166.821 277.243 166.648 277.243 166.477 277.243C165.97 277.238 164.922 277.235 164.603 277.285C164.224 277.351 161.487 278.695 160.728 279.109C160.149 279.431 159.272 280.048 158.874 280.468C158.26 281.125 156.697 283.38 156.496 283.948C156.248 284.667 155.891 286.705 155.899 287.847C155.906 288.402 156.096 289.492 156.283 290.077C156.636 291.154 157.741 293.086 158.245 293.74C158.524 294.1 159.173 294.839 159.587 295.218C160.079 295.664 160.928 296.257 161.487 296.542C161.991 296.796 162.998 297.08 163.493 297.172C164.074 297.272 164.84 297.24 165.469 297.113C165.962 297.011 167.092 296.747 167.664 296.611C168.785 296.338 170.257 295.977 170.608 295.892" stroke="#F8F8F8" stroke-width="4.09635" stroke-linecap="round" stroke-linejoin="round"/>
<path d="M122.408 278.62C122.923 278.53 124.287 278.301 124.715 278.277C125.361 278.242 126.483 278.439 127.007 278.599C128.058 278.927 130.285 280.116 131.175 280.84C131.586 281.179 132.414 282.02 132.745 282.472C133.118 282.992 133.555 283.864 133.741 284.466C133.901 284.999 134.05 286.143 134.053 286.659C134.053 287.161 133.917 288.368 133.773 288.941C133.501 289.991 132.521 291.817 132.079 292.376C131.665 292.895 129.489 294.766 128.602 295.372C128.136 295.688 127.054 296.322 126.613 296.527C126.091 296.765 124.999 297.088 124.404 297.159C124.25 297.176 123.181 297.259 123.018 297.271" stroke="#F8F8F8" stroke-width="4.09635" stroke-linecap="round" stroke-linejoin="round"/>
<path d="M120.689 278.277C120.66 279.079 120.665 279.795 120.773 280.219C121.101 281.31 121.407 282.889 121.405 283.873C121.405 284.718 122.297 290.622 122.513 293.214C122.627 295.023 122.754 298.968 122.756 299C122.756 299.369 122.756 299.965 122.756 300.191" stroke="#F8F8F8" stroke-width="4.09635" stroke-linecap="round" stroke-linejoin="round"/>
<path d="M122.754 299.963C122.253 300.402 121.807 301.083 121.549 301.514C121.421 301.677 120.996 301.987 120.838 302.03C120.732 302.056 119.929 302.03 119.194 302.135C116.902 302.508 110.252 303.822 110.149 303.835C108.515 304.058 103.875 304.1 103.281 304.029C102.897 303.983 101.938 303.716 101.488 303.629C101.118 303.56 98.2267 303.134 97.3057 302.91C96.4519 302.697 93.9104 301.566 93.3422 301.19C92.8626 300.866 92.0028 300.022 91.7446 299.53C91.5339 299.117 91.1841 298.06 91.0757 297.607C90.9687 297.142 90.8404 295.979 90.7992 295.264C90.7625 294.569 90.677 293.402 90.535 293.237C90.4021 293.1 89.0229 293.103 88.5571 292.955C88.3234 292.877 87.801 292.651 87.6651 292.545C87.436 292.362 87.1794 291.972 87.045 291.624C86.8968 291.219 86.6647 290.211 86.6463 289.652C86.6326 289.089 86.7242 287.933 86.8174 287.577C86.9961 286.915 87.9706 285.121 88.1951 284.857C87.882 285.183 87.6727 285.33 87.3367 285.42C86.5043 285.646 85.759 285.756 85.4657 285.613C85.0915 285.417 84.4363 284.73 84.2362 284.366C83.9429 283.821 82.8402 280.823 82.7012 280.175C82.6279 279.821 82.5744 278.651 82.6004 278.13C82.6493 277.232 83.1915 275.011 83.6375 273.977C83.8543 273.488 84.5462 272.502 84.8746 272.192C85.4138 271.698 86.7975 271.164 88.3539 270.678C89.4933 270.334 92.1249 269.626 93.5698 269.288C95.9097 268.809 100.849 267.961 102.749 267.68C104.429 267.465 106.349 267.481 106.917 267.52C109.85 267.727 111.238 268.204 111.394 268.292C111.574 268.708 112.037 269.297 112.553 269.791C112.972 270.194 113.509 270.997 113.743 271.566C114.158 272.603 114.378 273.872 114.401 273.942C114.414 273.985 114.444 274.052 114.491 274.145" stroke="#F8F8F8" stroke-width="4.09635" stroke-linecap="round" stroke-linejoin="round"/>
<path d="M101.756 278.277C101.935 278.293 102.426 278.35 102.568 278.347C103.289 278.327 105.803 277.556 106.763 277.321C108.293 276.966 110.092 276.642 111.177 276.546C111.503 276.517 114.392 276.235 116.059 275.954C117.356 275.708 120.217 275.179 120.605 275.162C120.719 275.158 121.187 275.175 121.301 275.178C121.327 275.178 121.353 275.178 121.378 275.178" stroke="#F8F8F8" stroke-width="4.09635" stroke-linecap="round" stroke-linejoin="round"/>
<path d="M101.07 233.179V232.833C100.945 233.596 100.14 235.476 99.7458 236.383C98.4292 239.334 96.3184 243.56 95.063 245.776C93.7876 247.921 91.2782 251.884 89.8746 253.986C88.7306 255.634 86.2089 259.02 85.5781 259.686C86.1234 259.657 86.7969 259.777 87.4094 259.979C88.2831 260.272 93.8334 262.485 96.0145 263.364C98.443 264.28 104.58 266.237 104.704 266.284L103.906 266.867" stroke="#F8F8F8" stroke-width="4.09635" stroke-linecap="round" stroke-linejoin="round"/>
<path d="M91.4258 263.817V263.99C91.1998 264.112 90.6438 264.355 90.6392 264.358C90.4743 264.48 90.3826 265.551 90.375 266.44C90.3842 267.593 90.3964 269.232 90.3933 269.53C90.3933 269.673 90.3933 269.818 90.3933 269.962" stroke="#F8F8F8" stroke-width="4.09635" stroke-linecap="round" stroke-linejoin="round"/>
<path d="M127.918 232.833C127.924 233.339 127.953 234.619 128.055 235.21C128.214 236.097 129.062 238.02 129.746 239.371C130.864 241.445 133.525 245.956 134.539 247.473C135.309 248.588 136.32 249.86 137.322 250.925C137.516 251.133 137.652 251.232 137.939 251.386C138.667 250.534 140.189 248.756 140.804 247.814C141.401 246.884 142.677 244.783 143.236 243.8C143.871 242.627 144.519 241.127 145.159 239.419C146.026 236.944 147.146 233.745 147.158 233.675C147.17 233.602 147.182 233.435 147.196 233.179" stroke="#F8F8F8" stroke-width="4.09635" stroke-linecap="round" stroke-linejoin="round"/>
<path d="M112.082 257.964C112.134 258.375 112.302 259.698 112.337 260.04C112.481 261.425 112.354 263.568 112.485 264.528C112.549 264.987 112.824 266.293 112.89 266.652C113.064 267.619 113.113 268.909 113.116 269.015C113.116 269.061 113.116 269.145 113.116 269.27" stroke="#F8F8F8" stroke-width="4.09635" stroke-linecap="round" stroke-linejoin="round"/>
<path d="M134.117 280.685C134.232 280.685 134.346 280.685 134.461 280.685C134.924 280.687 135.971 280.685 136.556 280.682C137.7 280.675 140.201 280.722 141.36 280.757C142.734 280.826 144.874 281.136 145.679 281.202C146.189 281.243 148.873 281.336 150.105 281.365C151.439 281.376 154.055 281.382 155.338 281.377C155.557 281.377 155.949 281.376 156.122 281.374" stroke="#F8F8F8" stroke-width="4.09635" stroke-linecap="round" stroke-linejoin="round"/>
<path d="M133.773 295.145C133.658 295.145 133.544 295.145 133.429 295.145C133.315 295.145 133.2 295.145 133.084 295.145C133.527 295.079 134.77 294.897 135.184 294.845C135.839 294.769 136.649 294.83 137.154 294.8C137.558 294.775 140.734 294.41 141.889 294.3C144.412 294.106 152.684 294.108 153.729 294.112C154.474 294.114 155.634 294.114 156.048 294.112C156.13 294.112 156.213 294.112 156.297 294.112" stroke="#F8F8F8" stroke-width="4.09635" stroke-linecap="round" stroke-linejoin="round"/>
<path d="M121.723 342.308C121.666 342.308 121.608 342.308 121.552 342.308C121.493 342.308 121.437 342.308 121.379 342.308C121.515 342.518 121.689 342.792 121.845 343.021C122.372 343.791 124.095 346.034 124.455 346.63C124.789 347.191 125.66 349.123 126.479 350.716C128.464 354.42 128.773 355.084 129.014 355.664C129.46 355.458 129.863 355.005 130.306 354.242C131.294 352.396 132.71 349.72 134.258 346.253C135.288 343.896 137.219 339.487 138.119 337.434C139.044 335.412 143.131 327.566 143.307 327.089C143.44 326.726 143.429 326.297 143.411 326.127C143.411 326.422 143.394 326.946 143.411 327.011C143.44 327.118 143.964 328.183 144.187 328.727C144.611 329.848 145.505 332.276 145.815 333.07C146.365 334.419 148.915 339.676 149.694 341.1C150.919 343.216 153.417 347.498 154.687 349.66C155.283 350.717 156.413 352.839 156.948 353.902C157.507 354.945 158.387 355.617 158.559 355.753L158.59 355.99C158.726 356.107 158.975 356.031 159.292 355.75C159.465 355.594 159.926 354.814 160.256 354.154C160.514 353.63 161.078 352.477 161.383 351.848C161.612 351.373 161.922 350.734 162.002 350.569" stroke="#F8F8F8" stroke-width="4.09635" stroke-linecap="round" stroke-linejoin="round"/>
<path d="M158.56 298.242V298.036C158.527 298.792 158.996 304.52 159.216 307.197C159.39 309.907 159.663 315.164 159.762 317.711C159.813 320.002 159.933 324.652 160.005 327.01C160.103 329.235 160.41 333.664 160.66 336.053C160.792 337.101 161.175 339.478 161.36 340.531C161.478 341.205 161.627 342.066 161.658 342.253" stroke="#F8F8F8" stroke-width="4.09635" stroke-linecap="round" stroke-linejoin="round"/>
<path d="M156.836 274.145C156.855 274.506 156.778 275.792 156.777 275.828C156.748 276.348 156.914 277.415 157.088 278.022C157.325 278.801 157.582 279.812 157.595 280.271C157.598 280.404 157.528 280.917 157.524 281.018C157.522 281.069 157.522 281.17 157.524 281.319" stroke="#F8F8F8" stroke-width="4.09635" stroke-linecap="round" stroke-linejoin="round"/>
<path d="M157.868 296.866C157.868 296.751 157.868 296.637 157.868 296.521C157.868 296.406 157.868 296.292 157.868 296.177C157.813 297.057 157.824 297.87 157.971 298.519C158.035 298.8 158.45 300.287 158.53 300.943C158.542 301.043 158.551 301.181 158.557 301.353" stroke="#F8F8F8" stroke-width="4.09635" stroke-linecap="round" stroke-linejoin="round"/>
<path d="M162.691 346.783C163.085 346.803 163.701 346.748 164.031 346.63C164.504 346.462 164.963 346.456 165.661 346.568C166.589 346.719 168.688 346.713 169.671 346.702C171.168 346.667 173.522 346.502 174.961 346.352C176.877 346.108 182.234 345.144 184.728 344.654C189.574 343.627 197.333 341.85 198.801 341.601L198.839 340.586" stroke="#F8F8F8" stroke-width="4.09635" stroke-linecap="round" stroke-linejoin="round"/>
<path d="M163.033 347.815C162.983 347.582 162.821 346.832 162.783 346.641C162.662 346.024 162.69 344.745 162.638 344.461C162.555 344.015 162.212 342.954 162.195 342.885C162.056 342.306 161.908 339.137 161.77 338.271C161.752 338.161 161.735 338.051 161.717 337.941" stroke="#F8F8F8" stroke-width="4.09635" stroke-linecap="round" stroke-linejoin="round"/>
<path d="M197.116 296.177C197.12 296.396 197.104 296.962 197.116 297.039C197.128 297.118 197.736 298.615 197.852 299.142C197.951 299.594 198.768 301.769 199.06 303.052C199.827 306.624 200.646 313.922 201.877 321.319C202.373 324.138 203.309 329.316 203.751 331.674C204.071 333.284 204.313 334.172 204.995 335.633L204.536 335.212L204.345 335.308C204.33 335.659 204.371 337.083 204.368 337.101C204.336 337.353 204.074 337.776 203.839 337.959C203.763 338.016 202.436 338.799 202.055 339.025C201.638 339.259 199.61 340.229 199.224 340.414" stroke="#F8F8F8" stroke-width="4.09635" stroke-linecap="round" stroke-linejoin="round"/>
<path d="M174.048 297.899C173.8 297.88 173.483 297.946 173.36 298.071C173.319 298.112 173.208 299.096 173 299.797C172.794 300.478 171.755 302.569 171.399 303.577C171.043 304.57 168.035 310.595 167.129 312.268C165.536 315.095 163.967 317.348 162 319.931" stroke="#F8F8F8" stroke-width="4.09635" stroke-linecap="round" stroke-linejoin="round"/>
<path d="M119.313 303.062C119.035 303.191 118.877 303.295 118.79 303.434C118.629 303.695 118.389 304.704 118.363 305.068C118.322 305.702 118.901 312.146 119.159 314.848C119.484 318.467 119.5 320.021 119.685 323.054C120.025 328.284 120.917 340.788 121.296 344.101C121.469 345.373 122.232 350.181 122.561 352.333C122.739 353.725 122.762 354.471 122.756 354.759V354.166" stroke="#F8F8F8" stroke-width="4.09635" stroke-linecap="round" stroke-linejoin="round"/>
<path d="M94.5273 304.439H93.8399C93.7895 305.354 93.8002 306.016 93.901 306.664C94.4326 309.454 94.8953 313.123 95.1611 315.301C95.4421 318.029 95.9248 323.304 96.1264 325.852C96.2806 328.311 96.5586 333.257 96.6823 335.743C96.9114 341.82 96.9328 351.04 97.0138 351.603L97.556 351.635C97.8966 353.842 97.9867 354.615 98.1623 354.711C98.1975 354.728 101.522 355.353 102.692 355.616C103.98 355.906 106.522 356.456 107.763 356.692C109.034 356.914 110.758 357.108 112.318 357.216C113.537 357.271 115.901 357.308 117.137 357.28C120.727 357.106 123.118 357.187 123.906 357.378C124.398 357.5 125.06 357.835 125.511 358.143L124.479 357.8" stroke="#F8F8F8" stroke-width="4.09635" stroke-linecap="round" stroke-linejoin="round"/>
<path d="M122.758 341.619V342.033C122.882 341.746 123.007 341.648 123.366 341.607C124.681 341.434 127.997 340.997 128.071 340.991C128.812 340.927 131.797 341.266 132.447 341.261C132.73 341.254 133.385 341.162 133.662 341.075C134.013 340.962 134.809 340.446 135.001 340.327" stroke="#F8F8F8" stroke-width="4.09635" stroke-linecap="round" stroke-linejoin="round"/>
<path d="M151.675 340.586C151.617 340.586 151.561 340.586 151.503 340.586C151.446 340.586 151.388 340.586 151.33 340.586C152.082 340.57 153.233 340.307 153.335 340.295C154.021 340.206 157.594 340.544 158.072 340.573C158.929 340.625 159.555 340.592 159.697 340.586" stroke="#F8F8F8" stroke-width="4.09635" stroke-linecap="round" stroke-linejoin="round"/>
<path d="M47.6398 126.092C47.623 126.999 47.5833 129.162 47.5589 130.417C47.5527 132.372 47.6566 137.5 47.7498 139.312C48.0384 144.353 48.6738 154.462 49.0205 159.532C49.5154 165.103 50.5402 173.908 51.0809 178.393C51.7438 183.273 53.5904 196.093 53.9279 197.825C54.3632 199.847 55.1421 203.343 55.692 205.45" stroke="#F8F8F8" stroke-width="4.09635" stroke-linecap="round" stroke-linejoin="round"/>
<path d="M55.1199 204.985C54.8694 205.321 54.2295 206.177 53.84 206.696C52.7418 208.196 52.1798 209.039 51.7246 209.806" stroke="#F8F8F8" stroke-width="4.09635" stroke-linecap="round" stroke-linejoin="round"/>
<path d="M206.339 216.787C206.231 216.494 205.643 216.34 205.546 216.271C205.374 216.144 203.805 212.865 203.616 212.24C203.523 211.921 203.471 211.522 203.504 211.333C203.575 210.994 203.966 210.64 204.696 210.148C205.221 209.812 206.254 209.158 206.701 208.905C207.051 208.708 207.949 208.26 208.496 208.011C208.792 207.88 209.279 207.663 209.47 207.579" stroke="#F8F8F8" stroke-width="4.09635" stroke-linecap="round" stroke-linejoin="round"/>
<path d="M209.96 206.849C209.887 206.873 209.195 206.404 208.685 206.32C207.958 206.201 207.176 205.92 206.818 205.673C206.443 205.404 205.809 204.788 205.441 204.332C205.106 203.91 204.665 203.021 204.64 202.768C204.622 202.526 204.747 202.154 204.912 201.946C205.297 201.48 207.156 200.455 208.442 199.875C208.696 199.763 209.229 199.54 209.459 199.452C209.979 199.255 210.979 198.923 211.185 198.856" stroke="#F8F8F8" stroke-width="4.09635" stroke-linecap="round" stroke-linejoin="round"/>
<path d="M213.805 134.788C213.825 137.194 214.338 141.125 214.497 143.849C214.579 145.921 214.741 150.593 214.781 153.179C214.779 155.58 214.66 160.318 214.579 162.701C214.333 167.506 213.646 177.23 213.282 182.055C212.884 186.77 212.027 196.189 211.567 200.895C211.303 203.267 210.72 208.055 210.344 210.525C209.093 217.624 208.667 219.601 208.635 219.752" stroke="#F8F8F8" stroke-width="4.09635" stroke-linecap="round" stroke-linejoin="round"/>
<path d="M255.917 137.273C255.903 137.975 255.866 139.868 255.843 141.064C255.758 145.727 255.574 155.664 255.477 160.938C255.38 166.179 255.18 176.293 255.025 180.577C254.904 182.77 254.511 187.332 254.137 190.037C253.723 192.654 252.837 197.02 252.309 199.357C251.729 201.824 250.623 205.605 249.897 207.811C249.077 210.203 247.467 214.412 246.613 216.477C245.505 219.029 243.861 222.434 243.09 223.999" stroke="#F8F8F8" stroke-width="4.09635" stroke-linecap="round" stroke-linejoin="round"/>
<path d="M257.212 166.47C257.136 166.47 257.059 166.47 256.983 166.47C256.907 166.47 256.83 166.47 256.754 166.47C257.513 166.475 259.36 166.77 260.639 167.171C261.968 167.599 267.212 169.461 269.423 170.296C271.377 171.086 275.551 173.154 277.585 174.22C278.699 174.814 281.13 176.196 281.815 176.633C283.295 177.582 285.651 179.427 285.789 179.528C285.835 179.561 285.923 179.624 286.055 179.717" stroke="#F8F8F8" stroke-width="4.09635" stroke-linecap="round" stroke-linejoin="round"/>
<path d="M253.373 200.843C253.491 200.961 253.565 201.03 253.598 201.051C253.692 201.107 254.105 200.898 254.251 200.843C254.286 200.829 255.252 200.613 255.928 200.327C257.598 199.577 262.024 197.333 264.09 196.11C266.582 194.57 270.145 192.114 272.075 190.683C273.856 189.332 277.42 186.537 279.248 185.101C281.382 183.477 285.253 180.516 285.73 179.995C285.889 179.819 285.964 179.621 286.049 179.205L285.878 179.101" stroke="#F8F8F8" stroke-width="4.09635" stroke-linecap="round" stroke-linejoin="round"/>
<path d="M256.555 177.238C256.773 177.232 257.236 177.211 257.357 177.238C257.447 177.259 258.71 177.698 259.177 177.791C259.802 177.913 261.271 178.341 262.867 178.71C263.997 178.972 266.637 179.653 267.209 179.877C267.779 180.103 268.497 180.511 268.651 180.6" stroke="#F8F8F8" stroke-width="4.09635" stroke-linecap="round" stroke-linejoin="round"/>
<path d="M115.633 103.936C115.494 104.028 115.416 104.096 115.399 104.144C115.373 104.22 116.234 107.403 116.534 108.538C116.705 109.241 117.747 115.313 118.167 117.835C118.489 120.083 118.968 124.445 119.19 126.675C119.393 129.258 119.469 133.078 119.485 135.201C119.459 137.632 119.234 142.752 119.045 145.284C118.802 147.841 118.296 152.713 118.034 155.029C117.887 156.072 117.554 157.948 117.325 159.052C116.748 161.456 115.958 164.723 115.744 165.584C115.709 165.728 115.675 165.87 115.64 166.012" stroke="#F8F8F8" stroke-width="4.09635" stroke-linecap="round" stroke-linejoin="round"/>
<path d="M127.569 152.39C127.311 152.712 126.896 153.746 126.8 153.954C126.629 154.32 124.231 157.488 124.144 157.607C123.644 158.281 121.921 160.007 121.1 160.819C120.259 161.621 117.944 163.744 117.927 163.774C117.907 163.811 117.91 163.869 117.933 163.949" stroke="#F8F8F8" stroke-width="4.09635" stroke-linecap="round" stroke-linejoin="round"/>
<path d="M127.551 153.425C127.561 155.586 127.65 160.145 127.852 162.33C127.975 163.448 128.305 165.491 128.592 166.875C129.009 168.7 130.335 172.833 131.38 175.743C131.838 176.965 132.589 178.681 133.078 179.584C133.549 180.449 134.752 182.378 135.44 183.233C136.926 185.075 138.998 186.983 141.482 189.051" stroke="#F8F8F8" stroke-width="4.09635" stroke-linecap="round" stroke-linejoin="round"/>
<path d="M143.529 194.01C143.403 193.277 143.325 192.574 143.326 191.94C143.341 190.773 143.403 188.301 143.45 186.996C143.571 185.072 144.18 180.29 144.516 178.07C144.905 175.802 145.816 171.272 146.361 169.161C146.954 167.011 148.325 162.55 149.058 160.39C149.845 158.175 151.569 153.674 152.527 151.342C153.43 149.223 155.249 145.074 156.2 143.071C157.193 141.08 159.29 136.919 160.503 134.657C161.793 132.374 164.507 127.928 165.89 125.721C167.545 123.133 169.678 120.312 171.228 118.267C171.379 118.067 171.646 117.713 171.762 117.557" stroke="#F8F8F8" stroke-width="4.09635" stroke-linecap="round" stroke-linejoin="round"/>
<path d="M171.078 116.153C171.663 116.712 172.511 117.557 173.459 118.675C174.284 119.654 175.003 120.969 175.807 122.316C176.367 123.231 177.614 125.261 178.295 126.428C179.104 127.905 180.093 129.909 180.621 131.06C181.577 133.299 183.384 137.605 184.236 139.67C185.486 142.88 187.716 149.106 187.856 149.689C187.893 149.845 188.007 150.456 188.042 150.639" stroke="#F8F8F8" stroke-width="4.09635" stroke-linecap="round" stroke-linejoin="round"/>
<path d="M172.223 116.359C172.343 116.566 172.589 116.943 172.757 117.167C173.189 117.745 174.437 118.793 175.668 119.717C177.634 121.117 181.463 123.775 183.326 125.03C187.261 127.564 192.967 130.799 194.982 131.874C195.868 132.334 198.269 133.388 199.205 133.783C201.888 134.851 205.884 136.207 208.317 136.858C211.694 137.785 213.449 138.382 214.023 138.581" stroke="#F8F8F8" stroke-width="4.09635" stroke-linecap="round" stroke-linejoin="round"/>
<path d="M263.807 94.8147C263.766 95.1385 263.806 95.5204 263.96 96.3253C264.31 98.0435 264.415 98.6972 264.565 100.415C264.84 103.117 265.66 108.15 265.808 109.308C266.027 111.36 266.399 115.933 266.557 118.108C266.688 120.774 266.682 125.566 266.657 127.87C266.584 130.365 266.328 135.233 266.124 137.722C265.88 140.178 265.304 144.829 265.014 147.065C264.643 149.508 263.884 154.184 263.462 156.286C262.995 158.427 261.9 162.162 261.666 162.963L262.115 162.223" stroke="#F8F8F8" stroke-width="4.09635" stroke-linecap="round" stroke-linejoin="round"/>
<path d="M260.418 166.689C260.424 166.127 260.442 164.964 260.482 164.534C260.511 164.236 260.856 163.168 261.151 162.331C261.608 161.073 262.132 159.626 262.2 159.438" stroke="#F8F8F8" stroke-width="4.09635" stroke-linecap="round" stroke-linejoin="round"/>
<path d="M265.527 94.8147C265.937 95.2821 267.114 97.1638 267.754 98.1978C268.442 99.3418 269.769 101.686 270.258 102.755C271.658 105.842 273.912 112.889 274.171 113.549C274.472 114.299 274.551 114.429 274.728 114.65" stroke="#F8F8F8" stroke-width="4.09635" stroke-linecap="round" stroke-linejoin="round"/>
<path d="M273.822 118.151C273.961 116.511 274.049 115.715 274.385 113.984C274.594 112.958 274.952 111.162 275.063 109.705C275.222 107.185 275.494 102.119 275.548 99.5831C275.538 97.2631 275.387 93.2324 275.164 90.4694C274.895 87.8042 274.203 84.021 273.53 81.1541C273.269 80.1461 272.672 77.9131 272.248 76.792C272.042 76.2513 271.126 74.2566 270.419 72.9064C269.635 71.4494 268.633 69.7509 268.016 68.8834C267.327 67.9288 265.82 66.0746 265.075 65.2163C264.302 64.3426 262.751 62.8489 261.565 61.8011C260.656 61.0191 258.907 59.8598 257.806 59.3803C257.128 59.087 254.632 58.1569 253.276 57.7048C253.062 57.636 252.705 57.523 252.562 57.4772" stroke="#F8F8F8" stroke-width="4.09635" stroke-linecap="round" stroke-linejoin="round"/>
<path d="M268.876 68.6787C268.885 68.4664 268.937 67.2507 268.745 66.5007C268.533 65.6958 266.005 59.8491 264.931 57.4222C263.897 55.2533 261.508 50.3704 260.856 49.2402C260.351 48.3956 258.881 46.2756 258.423 45.6906C257.812 44.9178 256.138 43.201 255.419 42.5871C254.519 41.8249 252.538 40.4869 251.536 39.9768C250.669 39.5369 248.743 38.7458 247.588 38.3823C246.131 37.9485 244.905 37.6384 243.51 37.3467C241.854 37.0504 236.747 36.4028 234.732 36.16" stroke="#F8F8F8" stroke-width="4.09635" stroke-linecap="round" stroke-linejoin="round"/>
<path d="M247.029 21.3844C246.961 21.5494 246.786 21.9969 246.716 22.1298C246.353 22.8049 244.835 24.6698 243.82 25.8183C243.336 26.3483 240.888 28.7921 240.411 29.2167C239.536 29.9895 237.78 31.2511 236.923 31.7368C236.142 32.1767 233.948 33.2153 232.898 33.6261C231.825 34.0217 230.057 34.6219 228.871 34.9717C227.453 35.3734 222.544 35.853 220.91 35.995" stroke="#F8F8F8" stroke-width="4.09635" stroke-linecap="round" stroke-linejoin="round"/>
<path d="M224.609 36.0088C225.168 35.6652 225.938 35.4361 226.584 35.3856C227.084 35.349 229.892 35.378 231.123 35.3887C233.381 35.3872 234.646 35.4086 235.953 35.5414C236.799 35.63 239.264 36.0088 239.923 36.1111" stroke="#F8F8F8" stroke-width="4.09635" stroke-linecap="round" stroke-linejoin="round"/>
<path d="M174.092 31.3412C175.891 31.3488 180.461 31.3687 183.23 31.3824C186.051 31.3794 191.47 31.3412 194.068 31.3045C197.457 31.1854 201.195 30.8753 203.289 30.6798C205.606 30.4034 210.386 29.7848 212.851 29.4427C215.063 29.1036 219.274 28.4178 221.275 28.0696C226.443 27.0096 234.515 25.3234 237.417 24.7003C239.781 24.1886 243.136 23.4647 244.124 23.2508" stroke="#F8F8F8" stroke-width="4.09635" stroke-linecap="round" stroke-linejoin="round"/>
<path d="M150.34 31.3412C150.688 31.051 151.2 30.243 151.479 29.9712C151.956 29.5145 156.855 26.22 158.795 25.2746C159.747 24.8118 162.241 23.8526 163.217 23.5731C164.046 23.341 166.444 22.7713 167.345 22.6155C168.469 22.4398 170.174 22.3757 171.605 22.3757C172.719 22.3955 175.066 22.4612 176.314 22.5406C178.874 22.7697 182.975 23.4967 184.29 23.7533C184.775 23.8496 185.619 24.016 185.976 24.0878" stroke="#F8F8F8" stroke-width="4.09635" stroke-linecap="round" stroke-linejoin="round"/>
<path d="M147.939 30.718C148.081 30.5699 150.999 29.3495 151.648 28.876C152.56 28.1948 154.481 26.7576 155.491 26.0016C156.92 24.8897 160.209 21.6731 161.846 20.0709C162.744 19.1697 164.551 17.3125 165.46 16.3564C166.367 15.3468 167.925 13.601 168.575 12.8633C168.644 12.7839 168.713 12.706 168.782 12.6281" stroke="#F8F8F8" stroke-width="4.09635" stroke-linecap="round" stroke-linejoin="round"/>
<path d="M98.3916 29.4733C98.384 29.2258 98.4176 29.0746 98.5413 28.9647C99.2546 28.34 102.911 26.7424 106.383 25.4075C107.91 24.853 109.337 24.4086 110.664 24.1291C111.318 23.9947 113.766 23.5808 114.817 23.4112C115.869 23.2615 117.329 23.1332 119.179 23.0828C123.668 23.066 134.68 23.2447 138.216 23.2234C140.73 23.1577 146.088 22.982 147.565 22.7774C148.499 22.6353 151.174 22.0962 151.855 21.9236C152.901 21.6578 155.409 20.7964 156.607 20.3397C158.14 19.7181 160.014 18.8475 160.993 18.2824C162.34 17.5004 165.464 15.0444 166.351 14.3327" stroke="#F8F8F8" stroke-width="4.09635" stroke-linecap="round" stroke-linejoin="round"/>
<path d="M97.6992 29.7848C98.1024 29.6153 98.4995 29.2442 98.8065 28.9142C100.219 27.3716 103.109 24.2238 105.118 22.4505C106.48 21.2913 111.523 17.3446 112.679 16.5611C114.486 15.3819 118.587 12.8756 120.658 11.6338C120.832 11.533 121.121 11.3665 121.237 11.3009" stroke="#F8F8F8" stroke-width="4.09635" stroke-linecap="round" stroke-linejoin="round"/>
<path d="M60.1719 48.4536C61.1433 47.5112 62.2139 46.2954 64.4149 43.4103C65.4519 42.1013 66.4737 41.1208 66.5822 41.0185" stroke="#F8F8F8" stroke-width="4.09635" stroke-linecap="round" stroke-linejoin="round"/>
<path d="M81.2676 28.5553C81.9335 28.1017 86.8622 24.9874 88.9898 23.706C91.5497 22.2306 94.8228 20.5703 97.488 19.3882C99.7515 18.4427 104.494 16.5947 106.895 15.7286C108.294 15.2613 110.956 14.4044 112.221 14.0165C113.093 13.7507 114.113 13.4407 114.263 13.3949" stroke="#F8F8F8" stroke-width="4.09635" stroke-linecap="round" stroke-linejoin="round"/>
<path d="M60.1742 48.4536C59.5786 48.4658 59.3312 48.4322 58.7462 48.2734C58.5858 48.2291 58.1734 48.1344 58.0803 48.0962C57.6465 47.9114 55.7999 46.3596 54.4421 45.3042C53.5807 44.6047 51.7998 42.4786 51.2423 41.5546C50.8177 40.8459 50.2679 39.456 50.2129 39.3201" stroke="#F8F8F8" stroke-width="4.09635" stroke-linecap="round" stroke-linejoin="round"/>
<path d="M48.6434 38.8084C48.6235 39.2162 48.5884 40.2395 48.6907 40.9604C48.7976 41.7012 49.5078 44.1282 49.8713 45.2538C50.4578 46.9507 51.1833 48.588 51.8768 49.6159C52.141 50.0054 53.2819 51.4915 53.3781 51.6167" stroke="#F8F8F8" stroke-width="4.09635" stroke-linecap="round" stroke-linejoin="round"/>
<path d="M52.9074 50.32C52.4462 50.3124 51.7115 50.3353 51.3251 50.1902C50.8822 50.0237 49.9031 50.01 49.6328 50.0085C48.8569 50.0039 47.994 50.0344 47.6152 50.0986C47.1157 50.1887 46.181 50.6331 45.7213 50.9325C44.9912 51.4136 43.2943 53.0387 42.6223 53.7856C41.8372 54.673 34.6236 65.0253 33.8767 65.9372C33.0687 66.8963 31.7308 68.3519 30.8861 69.2256C29.1297 70.9698 26.4156 72.9981 25.6779 73.4273C25.4366 73.5663 24.4071 74.1146 23.7733 74.3742C23.674 74.4155 23.5365 74.4674 23.3594 74.5331" stroke="#F8F8F8" stroke-width="4.09635" stroke-linecap="round" stroke-linejoin="round"/>
<path d="M19.4121 74.5896C20.3239 74.5927 22.6241 74.5972 24.011 74.5988C25.8086 74.5698 27.8919 74.4659 28.8832 74.3193C29.7248 74.194 31.6156 73.7465 32.8115 73.383C33.6516 73.1142 36.1213 72.2039 37.1141 71.7503C37.835 71.4204 40.1611 70.2168 41.2165 69.4883C41.3036 69.4302 41.3891 69.3707 41.4762 69.3111" stroke="#F8F8F8" stroke-width="4.09635" stroke-linecap="round" stroke-linejoin="round"/>
<path d="M37.7022 72.4116C37.0851 72.7186 36.6514 73.018 36.297 73.4472C35.7869 74.078 34.3069 76.2666 33.8365 77.0273C33.2561 78.0002 32.077 80.0407 31.4752 81.1618C30.9742 82.1607 29.9631 84.2959 29.4683 85.4185C28.8329 86.9749 28.3273 88.3846 27.8462 89.9181C27.5194 91.0498 26.9466 93.3516 26.7038 94.5093C26.5541 95.2699 26.1493 98.2498 26.0287 99.5175C25.937 100.654 25.7843 103.204 25.934 104.103C26.0974 105.025 26.7771 106.636 26.9619 107.069" stroke="#F8F8F8" stroke-width="4.09635" stroke-linecap="round" stroke-linejoin="round"/>
<path d="M31.4029 96.6812C30.8515 98.0405 30.349 99.5342 30.2161 100.338C30.1611 100.668 29.9702 101.871 29.7396 102.5C29.486 103.185 28.504 105.579 28.0732 106.623C27.4012 108.211 26.8865 109.347 26.1198 110.649C25.5134 111.675 21.524 117.523 20.7313 118.516C19.7904 119.689 17.0519 122.281 16.5234 122.774" stroke="#F8F8F8" stroke-width="4.09635" stroke-linecap="round" stroke-linejoin="round"/>
<path d="M18.1738 123.129C18.2792 123.376 18.4258 123.524 18.7176 123.61C19.1773 123.743 22.4657 124.021 23.1438 123.969C24.161 123.892 26.4826 123.705 27.7717 123.572C29.406 123.359 31.4358 122.988 32.4851 122.664C33.3037 122.408 35.5749 121.465 36.4699 121.024C38.8663 119.837 40.7282 118.573 41.614 117.899" stroke="#F8F8F8" stroke-width="4.09635" stroke-linecap="round" stroke-linejoin="round"/>
<path d="M29.8197 126.551C29.7831 127.338 29.9419 129.238 30.1695 130.759C30.5773 133.347 31.6174 139.598 31.9321 140.884C32.2131 142.03 34.0184 147.244 34.6706 148.916C35.5855 151.072 37.3068 154.821 38.6218 157.418C39.6681 159.377 42.26 163.756 43.3016 165.314C43.9859 166.298 45.304 168.083 45.9516 168.906C46.9871 170.188 49.5378 172.812 49.8234 173.105" stroke="#F8F8F8" stroke-width="4.09635" stroke-linecap="round" stroke-linejoin="round"/>
<path d="M40.1572 163.267C40.2152 163.215 40.2748 163.164 40.3329 163.112C40.3909 163.06 40.4489 163.008 40.507 162.956C39.9587 163.081 39.1186 163.602 38.7673 163.852C37.2659 164.917 33.4262 167.558 31.0863 169.132C27.0037 171.764 18.5086 177.311 14.0945 180.226C11.9563 181.719 8.85115 183.897 7.88281 184.58L8.10735 183.803" stroke="#F8F8F8" stroke-width="4.09635" stroke-linecap="round" stroke-linejoin="round"/>
<path d="M8.76758 185.357C8.79202 185.587 8.8363 185.875 8.89434 185.981C9.03028 186.22 9.78784 186.68 10.5194 187.063C11.8666 187.752 13.6627 188.427 14.7105 188.715C17.0168 189.353 21.4919 190.685 23.8135 191.384C26.271 192.087 30.9844 193.303 33.3518 193.891C35.5832 194.402 40.4326 195.371 42.6991 195.794C43.9225 195.992 46.1632 196.331 47.1804 196.473C48.2816 196.617 49.7356 196.806 50.0915 196.852" stroke="#F8F8F8" stroke-width="4.09635" stroke-linecap="round" stroke-linejoin="round"/>
<path d="M20.1582 183.803C20.5675 183.693 20.7844 183.602 21.0151 183.427C21.4855 183.066 22.075 182.561 22.3545 182.316C22.8051 181.938 25.3558 180.719 26.5318 180.175C29.165 178.932 32.0944 177.466 34.7108 176.317C36.959 175.379 41.535 173.531 43.4548 172.948C44.5774 172.632 46.9693 172.007 48.1744 171.698C48.3821 171.645 48.7547 171.55 48.9197 171.509" stroke="#F8F8F8" stroke-width="4.09635" stroke-linecap="round" stroke-linejoin="round"/>
<path d="M53.3652 193.759C53.854 193.86 54.9766 194.097 55.2775 194.17C55.8166 194.302 63.5496 196.858 63.8077 197.01C63.9788 197.115 64.1254 197.317 64.1987 197.535C64.269 197.779 64.2537 198.056 64.1407 198.309C63.9849 198.645 63.2747 199.811 62.9661 200.047C62.259 200.582 60.3299 201.301 58.323 201.964C57.8312 202.128 56.6032 202.534 55.8655 202.777C55.6593 202.847 55.3172 202.963 55.1813 203.009" stroke="#F8F8F8" stroke-width="4.09635" stroke-linecap="round" stroke-linejoin="round"/>
<path d="M58.1523 139.619C58.7098 139.276 59.5621 138.987 60.0096 138.842C60.7183 138.592 61.2605 138.326 61.7706 137.985C63.5699 136.765 67.625 133.869 69.583 132.442C70.5315 131.781 72.7706 130.388 73.2884 130.029C73.4197 129.939 73.8917 129.592 74.0352 129.487" stroke="#F8F8F8" stroke-width="4.09635" stroke-linecap="round" stroke-linejoin="round"/>
<path d="M174.037 127.796C174.197 128.123 174.871 128.797 175.105 128.989C175.656 129.438 177.124 130.211 178.651 130.937C180.962 132 185.214 133.838 187.353 134.556C188.695 134.976 190.836 135.494 192.002 135.645C192.619 135.723 193.796 135.803 194.418 135.812C195.528 135.822 196.966 135.47 197.186 135.418" stroke="#F8F8F8" stroke-width="4.09635" stroke-linecap="round" stroke-linejoin="round"/>
<path d="M81.7595 110.061C81.7366 110.301 81.7809 110.47 81.9443 110.609C82.2315 110.85 83.0883 111.185 83.5251 111.429C83.8245 111.599 86.1384 113.102 87.2839 113.768C88.263 114.308 90.4028 115.411 91.4857 115.981C92.5426 116.566 94.5908 117.781 95.5805 118.403C96.5687 119.011 98.5222 119.982 99.6494 120.343C100.922 120.735 101.711 120.884 101.977 120.926" stroke="#F8F8F8" stroke-width="4.09635" stroke-linecap="round" stroke-linejoin="round"/>
<path d="M102.199 121.884C102.477 121.889 102.677 121.873 102.787 121.809C103.042 121.653 103.623 120.635 103.931 120.083C104.267 119.483 104.721 118.768 104.99 118.073C105.127 117.716 106.134 114.62 106.474 113.624C106.754 112.833 107.382 111.131 107.75 109.709C108.416 106.974 109.055 103.177 109.399 100.405C109.459 99.91 109.523 98.8378 109.419 98.4284C109.346 98.1581 108.933 97.1776 108.855 96.9928" stroke="#F8F8F8" stroke-width="4.09635" stroke-linecap="round" stroke-linejoin="round"/>
<path d="M57.9883 110.994C58.3212 111.272 59.1521 111.958 59.4805 112.176C59.7951 112.384 61.4966 113.256 62.775 114.041C64.759 115.312 69.6511 118.857 70.9616 119.471C71.3953 119.665 72.327 120.079 72.8249 120.297C73.3397 120.52 74.0102 120.809 74.1644 120.876" stroke="#F8F8F8" stroke-width="4.09635" stroke-linecap="round" stroke-linejoin="round"/>
<path d="M75.002 121.884C75.005 121.727 75.0111 121.417 75.0142 121.262C75.0126 120.986 75.0203 120.155 75.17 118.508C75.2937 117.219 75.5167 114.739 75.6159 113.549C75.6969 112.533 76.0833 109.827 76.1398 109.334C76.2483 108.35 76.3185 106.239 76.3353 105.554" stroke="#F8F8F8" stroke-width="4.09635" stroke-linecap="round" stroke-linejoin="round"/>
<path d="M45.4043 121.262C45.7357 121.583 46.5361 122.058 46.8034 122.304C46.9561 122.448 47.6968 123.277 48.1703 123.63C49.2578 124.432 50.7301 125.363 51.8665 125.971C53.0624 126.594 54.7899 127.32 55.8162 127.433C56.1492 127.471 56.8289 127.492 56.8793 127.505C57.2611 127.596 57.6551 128.112 57.8033 128.294C58.1164 127.59 58.3211 127.049 58.3868 126.596C58.4753 125.912 57.8354 117.45 57.733 116.604C57.7132 116.434 57.6338 115.878 57.6093 115.712" stroke="#F8F8F8" stroke-width="4.09635" stroke-linecap="round" stroke-linejoin="round"/>
<path d="M46.4291 121.884C45.9297 120.537 45.2103 119.011 44.9797 118.318C44.1961 115.834 42.7085 111.901 42.1464 110.117C41.5706 108.112 40.3931 103.406 39.8753 100.938C39.6401 99.6641 39.2094 97.2218 39.0154 96.0519C38.7817 94.5245 38.5663 92.7085 38.5587 91.5844C38.5541 91.1537 38.6855 90.4114 38.7512 90.1472" stroke="#F8F8F8" stroke-width="4.09635" stroke-linecap="round" stroke-linejoin="round"/>
<path d="M39.4141 91.3919C40.0082 92.3175 43.0323 95.8182 44.9232 98.1734C46.478 100.16 50.1055 104.921 50.9425 106.204C51.5091 107.049 52.7783 108.898 53.4718 109.853C54.1224 110.76 55.4497 112.656 56.1263 113.644C56.3187 113.917 56.6364 114.365 56.7617 114.54" stroke="#F8F8F8" stroke-width="4.09635" stroke-linecap="round" stroke-linejoin="round"/>
<path d="M58.6584 111.927C58.6905 111.435 58.3743 110.554 58.2201 110.125C58.0185 109.566 57.3877 107.009 57.0868 105.764C56.7385 104.24 56.036 99.826 55.7351 98.0695C55.1684 94.1503 53.8381 83.0496 53.2516 78.1223C52.8637 75.2815 52.2008 70.62 51.9259 68.7994C51.7685 67.631 51.6066 66.0471 51.5898 65.8776" stroke="#F8F8F8" stroke-width="4.09635" stroke-linecap="round" stroke-linejoin="round"/>
<path d="M52.2754 65.8776C52.7657 66.5099 53.8608 68.6192 54.3281 69.4012C55.5378 71.3593 58.1144 75.3716 59.4493 77.4473C60.7766 79.5779 63.1348 83.6025 64.291 85.6293C66.6584 90.0082 70.9243 98.2528 73.3177 102.679C73.6063 103.203 74.1394 104.168 74.3822 104.611C75.01 105.757 75.4712 106.655 75.5552 106.818" stroke="#F8F8F8" stroke-width="4.09635" stroke-linecap="round" stroke-linejoin="round"/>
<path d="M81.4233 109.749C80.4473 108.135 79.8058 106.982 79.4469 105.819C79.2147 105.062 76.8794 98.2619 76.5892 97.1577C76.0394 95.0484 74.8679 90.4862 74.2462 88.0333C73.6643 85.6033 72.7052 81.119 72.2347 78.831C71.7994 76.3827 71.0251 71.7731 70.686 69.6135C70.3454 67.2843 69.7925 62.2074 69.594 59.452C69.4657 56.8784 69.3496 51.3204 69.3205 48.4597C69.319 46.1549 69.316 42.8956 69.3145 41.941" stroke="#F8F8F8" stroke-width="4.09635" stroke-linecap="round" stroke-linejoin="round"/>
<path d="M69.6777 31.3275C70.0825 25.58 70.7224 19.2064 71.0707 16.4725C71.3578 14.3296 71.703 11.7072 71.7626 11.2291" stroke="#F8F8F8" stroke-width="4.09635" stroke-linecap="round" stroke-linejoin="round"/>
<path d="M72.1895 12.984C72.446 13.9019 73.0921 16.1792 73.4801 17.5401C74.3705 20.4237 75.4794 22.8843 75.6306 23.2463" stroke="#F8F8F8" stroke-width="4.09635" stroke-linecap="round" stroke-linejoin="round"/>
<path d="M81.6641 38.1638C83.506 42.3503 87.2343 50.8332 89.1206 55.1311C91.1794 59.6552 95.3048 68.5458 97.3713 72.911C99.644 77.5358 103.026 84.0545 103.895 85.5727C104.817 87.123 105.818 88.5953 106.671 89.7561C107.437 90.7535 108.487 91.6561 108.81 91.928" stroke="#F8F8F8" stroke-width="4.09635" stroke-linecap="round" stroke-linejoin="round"/>
<path d="M108.546 95.1263C108.63 95.305 108.863 95.7968 108.876 95.9037C108.894 96.0473 108.836 96.1955 108.868 96.336C108.911 96.5361 109.389 96.8461 109.45 96.9775C109.486 97.0538 109.514 97.2463 109.534 97.5563C109.059 96.5131 108.709 95.2668 108.364 93.5623C108.136 92.2717 107.802 90.3488 107.693 89.718" stroke="#F8F8F8" stroke-width="4.09635" stroke-linecap="round" stroke-linejoin="round"/>
<path d="M69.4141 51.2548C69.4324 50.3949 69.4752 48.2306 69.5011 46.9247C69.5302 44.5787 69.5912 40.0532 69.6768 37.753C69.8005 35.5399 70.1793 30.6829 70.3931 28.172C70.5306 26.8172 70.7581 24.5857 70.8482 23.7106" stroke="#F8F8F8" stroke-width="4.09635" stroke-linecap="round" stroke-linejoin="round"/>
<path d="M75.1113 22.3177C75.4718 23.6984 75.8017 24.8592 76.35 26.2658C77.1977 28.3766 79.0946 32.9984 80.1455 35.5078C81.0787 37.6553 83.2918 42.3962 84.2662 44.3985C85.3614 46.6865 86.3923 48.9454 86.4595 49.0936" stroke="#F8F8F8" stroke-width="4.09635" stroke-linecap="round" stroke-linejoin="round"/>
<path d="M72.4323 149.265C72.3804 149.801 72.414 150.389 72.5164 151.221C72.6828 152.457 73.0204 154.971 73.1899 156.248C73.3992 158.026 73.4373 159.625 73.529 160.769C73.7535 162.927 74.2178 167.466 74.4576 169.847C74.7799 173.876 75.371 184.423 75.6398 189.619C75.7497 191.697 76.0338 196.648 76.2309 198.033C76.2935 198.47 76.544 199.931 76.6325 200.44L75.9682 200.293" stroke="#F8F8F8" stroke-width="9.31529" stroke-linecap="round" stroke-linejoin="round"/>
<path d="M178.185 145.532C178.209 145.984 178.151 146.697 178.039 147.377C177.891 148.344 178.03 151.895 177.978 156.266C177.978 158.126 178.174 163.597 178.285 166.194C178.427 168.557 178.731 173.212 178.896 175.505C179.098 177.851 179.562 182.66 179.823 185.121C180.853 193.535 180.955 195.11 180.975 195.436L180.411 194.774" stroke="#F8F8F8" stroke-width="9.31529" stroke-linecap="round" stroke-linejoin="round"/>
<path d="M202.722 227.424H201.348C202.261 226.501 203.724 225.119 204.543 224.734C204.816 224.607 206.189 224.091 206.727 223.885C207.204 223.694 207.822 223.445 207.966 223.387" stroke="#F8F8F8" stroke-width="3.62592" stroke-linecap="round" stroke-linejoin="round"/>
</g>
<defs>
<clipPath id="clip0">
<rect width="296" height="368.244" fill="white" transform="translate(0.5)"/>
</clipPath>
</defs>
</svg>
